<?xml version="1.0" standalone="no"?>
<!DOCTYPE svg PUBLIC "-//W3C//DTD SVG 20010904//EN"
 "http://www.w3.org/TR/2001/REC-SVG-20010904/DTD/svg10.dtd">
<svg version="1.0" xmlns="http://www.w3.org/2000/svg"
 width="920.000000pt" height="512.000000pt" viewBox="0 0 920.000000 512.000000"
 preserveAspectRatio="xMidYMid meet">

<g transform="translate(0.000000,512.000000) scale(0.100000,-0.100000)"
fill="#000000" stroke="none">
<path d="M4425 5074 c-208 -17 -345 -39 -485 -78 -90 -25 -138 -41 -146 -49
-4 -4 -15 -7 -25 -7 -10 0 -33 -6 -51 -14 -18 -8 -67 -28 -108 -46 -100 -42
-200 -93 -285 -145 -28 -16 -58 -34 -67 -40 -138 -83 -295 -210 -433 -349
-138 -140 -153 -156 -252 -291 -96 -131 -105 -144 -123 -180 -6 -11 -19 -33
-30 -50 -11 -16 -22 -36 -25 -42 -3 -7 -7 -19 -10 -25 -3 -7 -14 -26 -25 -43
-11 -16 -22 -37 -26 -45 -3 -8 -12 -27 -20 -42 -8 -14 -14 -33 -14 -42 0 -9
-4 -16 -10 -16 -5 0 -10 -8 -10 -17 0 -10 -7 -31 -15 -47 -8 -15 -15 -36 -15
-45 0 -10 -7 -26 -15 -37 -8 -10 -15 -31 -15 -45 0 -15 -7 -32 -15 -39 -8 -7
-15 -24 -15 -39 -1 -14 -7 -37 -15 -51 -8 -14 -14 -39 -15 -56 0 -18 -7 -45
-15 -60 -8 -16 -15 -48 -15 -71 0 -23 -5 -54 -11 -70 -12 -31 -27 -163 -37
-328 -10 -159 14 -510 37 -554 6 -11 11 -35 11 -54 0 -19 7 -59 16 -88 8 -30
22 -79 30 -109 9 -30 22 -68 30 -83 8 -16 14 -39 14 -52 0 -13 4 -26 9 -29 5
-3 12 -18 15 -33 4 -16 13 -41 20 -58 8 -16 19 -41 24 -55 36 -85 53 -120 62
-125 5 -3 10 -14 10 -25 0 -10 7 -20 15 -24 8 -3 15 -14 15 -25 0 -11 5 -23
11 -26 5 -4 15 -17 20 -28 11 -25 19 -38 74 -122 184 -285 479 -572 772 -754
461 -285 963 -410 1501 -373 177 12 285 25 342 41 19 5 67 17 105 26 95 23
166 45 187 56 10 5 23 9 29 9 6 0 25 6 42 14 18 8 68 29 112 46 145 57 391
199 529 305 160 123 436 393 436 426 0 5 4 9 8 9 10 0 82 96 82 110 0 5 4 10
9 10 5 0 27 27 48 61 21 34 46 73 55 88 10 14 22 36 27 48 5 11 15 24 20 28 6
3 11 15 11 25 0 10 4 20 8 22 8 3 65 117 97 193 9 22 20 49 25 60 5 11 11 32
14 48 4 15 11 27 16 27 6 0 10 13 10 28 0 16 7 37 15 48 8 10 15 30 15 44 0
14 7 36 15 50 8 14 15 41 15 60 0 19 7 46 15 60 8 14 14 44 15 67 0 23 5 54
12 70 11 29 24 156 35 363 6 119 -9 364 -28 460 -6 30 -14 80 -18 110 -4 30
-12 65 -19 77 -7 12 -12 37 -12 55 0 19 -5 39 -12 46 -6 6 -14 30 -18 54 -9
48 -26 99 -46 140 -8 14 -14 33 -14 42 0 9 -4 24 -10 34 -5 9 -23 49 -40 87
-16 39 -34 77 -40 85 -5 8 -21 38 -35 65 -14 28 -34 64 -45 80 -11 17 -24 39
-30 50 -23 45 -147 218 -214 299 -121 144 -346 353 -471 436 -27 18 -59 41
-70 51 -11 9 -36 26 -55 36 -19 11 -76 43 -127 72 -91 51 -191 99 -318 151
-182 75 -446 132 -685 150 -69 5 -147 11 -175 13 -27 2 -122 -2 -210 -9z m455
-100 c457 -52 922 -253 1280 -552 90 -75 305 -290 297 -298 -1 -2 -228 92
-502 208 -414 174 -509 211 -550 212 -44 1 -155 -43 -980 -389 -1008 -423
-990 -414 -1014 -502 -7 -26 -11 -383 -11 -1099 l0 -1061 23 -43 c12 -24 38
-56 57 -71 19 -15 445 -202 945 -415 886 -378 912 -388 975 -388 62 0 85 9
525 196 253 108 477 203 498 212 l39 16 -52 -60 c-294 -339 -773 -627 -1230
-739 -218 -53 -331 -66 -580 -66 -253 1 -375 15 -595 70 -175 44 -299 91 -482
181 -481 236 -864 620 -1098 1099 -122 248 -192 470 -231 730 -25 167 -26 524
-1 685 71 457 255 870 544 1217 402 484 999 800 1628 862 130 13 382 10 515
-5z m1129 -781 l579 -247 60 -96 c33 -52 87 -150 120 -216 l61 -121 -237 -101
-236 -100 -31 22 c-16 13 -420 189 -897 392 -477 203 -867 371 -868 374 0 3
179 80 398 172 267 112 409 167 435 167 27 1 191 -65 616 -246z m-679 -530
c487 -209 894 -383 905 -387 14 -5 -80 -49 -366 -170 -212 -90 -400 -171 -417
-180 -36 -19 -75 -67 -91 -115 -8 -25 -11 -325 -11 -1082 0 -577 -2 -1049 -5
-1049 -19 0 -1805 776 -1820 791 -20 19 -20 35 -23 1074 -1 611 1 1055 7 1055
5 0 35 -12 67 -26 255 -113 1482 -624 1499 -624 44 0 61 53 28 82 -14 11
-1319 564 -1509 639 -27 10 -28 12 -9 20 137 63 843 357 850 354 6 -2 408
-174 895 -382z m1571 -339 c42 -123 85 -306 105 -449 21 -145 24 -465 5 -605
-51 -381 -177 -730 -369 -1025 l-59 -90 -557 -235 c-306 -129 -561 -236 -567
-238 -5 -2 -9 395 -9 1037 0 1136 -2 1094 57 1124 32 17 811 347 818 347 3 0
5 -60 5 -133 0 -90 4 -137 12 -145 16 -16 65 -16 74 0 10 15 12 231 3 280 l-6
36 226 95 c124 52 227 94 229 92 1 -1 16 -42 33 -91z"/>
</g>
</svg>
