<?xml version="1.0" standalone="no"?>
<!DOCTYPE svg PUBLIC "-//W3C//DTD SVG 20010904//EN"
 "http://www.w3.org/TR/2001/REC-SVG-20010904/DTD/svg10.dtd">
<svg version="1.0" xmlns="http://www.w3.org/2000/svg"
 width="820.000000pt" height="512.000000pt" viewBox="0 0 820.000000 512.000000"
 preserveAspectRatio="xMidYMid meet">

<g transform="translate(0.000000,512.000000) scale(0.100000,-0.100000)"
fill="#000000" stroke="none">
<path d="M2218 4202 c-16 -9 -28 -22 -28 -28 0 -6 -6 -17 -14 -23 -9 -8 -16
-39 -19 -84 -3 -40 -8 -87 -12 -104 l-7 -33 725 0 c698 0 727 -1 769 -20 52
-23 77 -46 101 -89 21 -40 22 -104 3 -121 -8 -6 -13 -17 -11 -23 5 -14 -18
-43 -58 -74 -18 -14 -49 -24 -90 -28 -34 -3 -485 -7 -1002 -9 -909 -2 -941 -2
-972 -21 -22 -13 -33 -27 -33 -42 0 -12 -4 -25 -10 -28 -5 -3 -10 -15 -10 -26
0 -10 5 -19 10 -19 6 0 10 -11 10 -25 0 -14 5 -25 11 -25 6 0 17 -7 25 -15 14
-13 135 -15 969 -15 927 0 955 -1 999 -20 52 -22 96 -64 96 -90 0 -10 7 -23
15 -30 19 -16 19 -69 0 -94 -8 -11 -15 -26 -15 -33 0 -19 -58 -81 -93 -98 -26
-13 -128 -15 -705 -15 -663 0 -676 0 -716 -21 -35 -17 -44 -28 -55 -65 -10
-34 -11 -48 -2 -57 6 -6 11 -18 11 -27 0 -8 16 -25 35 -37 l35 -23 668 0 c623
0 670 -1 690 -17 11 -10 34 -29 51 -43 20 -16 31 -34 31 -50 0 -14 5 -31 11
-37 9 -9 8 -27 -2 -72 -7 -34 -17 -61 -21 -61 -4 0 -8 -7 -8 -15 0 -8 -4 -15
-9 -15 -6 0 -22 -11 -37 -25 -15 -14 -35 -25 -45 -25 -10 0 -21 -4 -24 -10 -4
-7 -293 -10 -834 -10 l-828 0 -36 -27 c-35 -27 -36 -31 -37 -90 0 -47 3 -63
14 -63 8 0 16 -6 19 -14 6 -14 42 -22 132 -29 l40 -3 0 -119 c-1 -84 -4 -120
-13 -123 -9 -3 -12 -48 -12 -172 0 -140 2 -169 15 -174 8 -3 15 -17 15 -31 0
-14 5 -25 10 -25 6 0 10 -4 10 -10 0 -5 19 -29 43 -52 43 -44 103 -78 137 -78
10 0 22 -4 25 -10 3 -5 39 -10 80 -10 85 0 105 -12 105 -66 0 -19 5 -34 10
-34 6 0 10 -11 10 -24 0 -13 7 -26 15 -30 8 -3 15 -15 15 -26 0 -11 5 -20 10
-20 6 0 10 -6 10 -14 0 -8 7 -16 15 -20 8 -3 15 -12 15 -19 0 -7 11 -20 25
-27 14 -7 25 -19 25 -26 0 -6 8 -14 18 -18 18 -6 53 -27 62 -37 11 -12 74 -39
106 -45 19 -3 37 -10 40 -15 7 -12 210 -12 232 0 9 6 34 13 55 16 20 3 37 10
37 15 0 6 8 10 18 10 24 0 125 71 161 114 9 10 24 27 34 38 9 10 17 23 17 28
0 6 5 10 10 10 6 0 10 6 10 14 0 8 7 16 15 20 8 3 15 15 15 26 0 11 5 20 10
20 6 0 10 16 10 35 0 22 6 38 15 41 8 4 15 12 15 20 0 12 93 14 593 15 325 1
597 1 604 0 6 -1 14 3 18 9 3 5 18 10 33 10 15 0 51 16 79 35 59 39 80 43 109
17 37 -33 139 -72 188 -72 37 0 56 -21 56 -63 0 -22 6 -37 15 -41 8 -3 15 -17
15 -31 0 -14 5 -25 10 -25 6 0 10 -7 10 -15 0 -9 7 -18 15 -21 8 -4 15 -12 15
-20 0 -42 187 -179 261 -190 22 -4 42 -11 45 -15 7 -12 211 -12 218 0 3 4 23
11 44 14 46 8 123 46 163 81 16 14 32 26 37 26 8 0 62 58 62 67 0 3 11 16 25
29 14 13 25 30 25 39 0 8 5 15 10 15 6 0 10 9 10 20 0 11 7 23 15 26 9 4 15
19 15 35 0 52 26 69 102 69 37 0 70 5 73 10 3 5 14 10 24 10 48 0 211 114 211
147 0 6 7 14 16 17 8 3 13 10 10 15 -4 5 1 16 9 24 8 9 15 26 15 39 0 13 7 33
15 44 10 13 14 47 15 116 0 53 4 100 10 103 6 4 10 58 10 130 0 74 5 135 12
152 7 15 16 87 20 158 4 72 10 152 14 178 4 31 2 53 -5 60 -6 6 -11 19 -11 29
0 10 -11 24 -25 30 -14 6 -25 15 -25 20 0 4 -18 8 -40 8 -28 0 -40 4 -40 14 0
8 -7 16 -15 20 -8 3 -15 15 -15 26 0 11 -4 20 -10 20 -5 0 -10 9 -10 20 0 11
-7 23 -15 26 -8 4 -15 14 -15 24 0 11 -4 22 -10 25 -5 3 -10 14 -10 25 0 10
-7 20 -15 24 -8 3 -15 13 -15 23 0 10 -7 27 -15 37 -8 10 -12 22 -10 26 3 5
-2 10 -10 14 -8 3 -15 14 -15 25 0 10 -7 22 -16 25 -8 3 -13 10 -10 14 3 5 -1
18 -9 28 -8 10 -15 26 -15 35 0 9 -7 19 -15 23 -8 3 -15 12 -15 19 0 18 -28
75 -41 82 -5 4 -9 15 -9 26 0 10 -4 19 -9 19 -5 0 -12 11 -15 25 -4 14 -11 25
-16 25 -6 0 -10 9 -10 21 0 11 -7 27 -15 36 -8 8 -13 19 -9 24 3 5 -2 12 -10
15 -9 3 -16 16 -16 29 0 13 -7 25 -15 29 -8 3 -15 15 -15 26 0 11 -4 20 -10
20 -5 0 -10 8 -10 18 0 10 -17 37 -38 60 l-39 42 -433 0 -432 0 6 33 c24 138
25 322 2 368 -9 18 -16 36 -16 41 0 23 -89 110 -135 132 -22 10 -48 23 -57 27
-10 5 -611 9 -1335 9 -1224 -1 -1320 -2 -1345 -18z m3225 -829 c3 -7 -1 -106
-21 -425 -5 -77 -13 -133 -20 -140 -18 -18 -15 -121 5 -160 31 -61 33 -68 33
-87 0 -10 7 -21 15 -25 8 -3 15 -12 15 -21 0 -8 4 -15 9 -15 4 0 21 -12 37
-27 75 -71 109 -76 529 -83 l370 -5 -1 -100 c-1 -63 -6 -101 -13 -103 -7 -2
-11 -44 -11 -122 0 -65 -5 -131 -11 -147 -6 -15 -13 -72 -14 -127 -2 -54 -8
-103 -14 -109 -6 -6 -11 -18 -11 -26 0 -17 -29 -47 -72 -74 -33 -21 -135 -23
-160 -3 -11 8 -18 26 -18 45 0 17 -4 31 -8 31 -5 0 -18 21 -29 48 -37 83 -134
173 -248 228 -58 28 -65 29 -207 29 -104 0 -151 -4 -159 -12 -7 -7 -19 -13
-26 -13 -25 0 -162 -91 -199 -134 -59 -66 -83 -96 -78 -96 5 0 -13 -38 -37
-80 -5 -8 -13 -25 -19 -37 -18 -42 -121 -20 -139 30 -11 28 -3 312 10 344 5
13 9 68 9 121 0 57 6 117 15 146 10 31 15 91 15 162 0 64 4 115 10 119 6 4 10
54 10 118 0 62 5 128 12 147 6 19 15 98 19 175 19 347 26 417 40 426 17 11
356 12 362 2z m-2471 -1644 c52 -15 158 -87 158 -107 0 -7 7 -15 15 -18 8 -4
15 -14 15 -23 0 -9 7 -25 15 -35 21 -28 21 -189 0 -206 -8 -7 -15 -21 -15 -32
0 -35 -82 -116 -156 -154 -47 -24 -65 -27 -142 -27 -72 1 -94 5 -128 24 -49
29 -124 93 -124 107 0 5 -7 15 -15 22 -8 7 -15 26 -15 42 0 16 -5 39 -12 51
-13 26 -13 86 2 101 5 5 10 27 10 48 0 21 4 38 9 38 5 0 12 8 15 18 15 38 31
62 43 62 7 0 13 6 13 13 0 17 74 59 140 79 60 18 100 17 172 -3z m2708 0 c58
-12 100 -36 138 -78 13 -15 32 -36 43 -47 10 -12 19 -31 19 -43 0 -12 5 -21
10 -21 6 0 10 -40 10 -100 0 -60 -4 -100 -10 -100 -5 0 -10 -11 -10 -25 0 -14
-7 -28 -15 -31 -8 -4 -15 -12 -15 -19 0 -11 -27 -38 -86 -85 -10 -8 -38 -23
-61 -34 -57 -26 -193 -25 -243 1 -61 33 -110 68 -110 79 0 7 -7 14 -15 18 -8
3 -15 12 -15 19 0 8 -7 20 -15 27 -8 7 -13 15 -10 19 2 4 -3 20 -11 35 -17 34
-18 119 -2 149 7 12 13 31 15 42 2 11 8 22 13 23 6 2 10 11 10 20 1 43 117
135 187 148 21 3 45 10 53 15 16 8 39 6 120 -12z"/>
</g>
</svg>
