<?xml version="1.0" standalone="no"?>
<!DOCTYPE svg PUBLIC "-//W3C//DTD SVG 20010904//EN"
 "http://www.w3.org/TR/2001/REC-SVG-20010904/DTD/svg10.dtd">
<svg version="1.0" xmlns="http://www.w3.org/2000/svg"
 width="1680.000000pt" height="869.000000pt" viewBox="0 0 1680.000000 869.000000"
 preserveAspectRatio="xMidYMid meet">

<g transform="translate(0.000000,869.000000) scale(0.100000,-0.100000)"
fill="#000000" stroke="none">
<path d="M7130 7593 c-8 -3 -19 -11 -25 -17 -11 -14 -82 -55 -205 -118 -128
-67 -198 -106 -275 -157 -75 -49 -130 -80 -240 -137 -159 -82 -233 -123 -335
-189 -68 -44 -140 -84 -300 -168 -157 -82 -163 -86 -265 -153 -48 -31 -103
-62 -230 -129 -99 -52 -299 -166 -315 -180 -14 -12 -47 -31 -192 -109 -38 -20
-98 -53 -135 -73 -38 -20 -81 -44 -98 -53 -16 -8 -57 -34 -90 -56 -33 -23 -72
-47 -87 -55 -128 -67 -200 -106 -323 -174 -27 -15 -57 -33 -65 -40 -21 -17
-173 -105 -250 -145 -88 -45 -151 -81 -180 -102 -24 -18 -24 -19 -7 -47 9 -16
17 -36 17 -45 0 -9 11 -26 25 -38 14 -12 25 -31 25 -43 0 -12 11 -31 25 -43
14 -12 25 -31 25 -41 0 -11 11 -33 25 -49 14 -17 28 -44 31 -61 4 -17 14 -33
24 -36 11 -3 22 -20 25 -38 4 -18 14 -40 23 -49 16 -19 52 -24 67 -9 8 7 67
40 169 95 12 6 53 32 91 57 39 25 123 74 188 108 95 51 121 60 132 51 13 -11
15 -271 17 -1959 l3 -1946 155 -3 c85 -2 170 0 188 3 l32 6 0 2068 c0 1957 1
2069 18 2083 9 9 49 33 87 54 39 21 95 52 126 68 31 17 110 63 175 102 65 40
157 92 204 117 145 76 234 128 335 194 27 18 55 33 61 33 7 0 14 4 16 8 2 4
39 26 83 48 44 23 107 56 140 74 142 78 132 72 222 132 35 23 103 60 273 150
141 74 201 109 246 140 52 37 105 67 249 143 50 26 101 54 115 61 32 18 69 10
132 -27 27 -16 51 -29 53 -29 2 0 34 -21 72 -46 37 -25 77 -50 88 -55 11 -5
36 -19 55 -30 35 -22 191 -105 285 -154 28 -14 62 -33 77 -43 14 -9 74 -46
132 -80 99 -60 127 -75 266 -149 91 -48 161 -88 245 -140 88 -55 144 -86 280
-158 162 -86 237 -129 344 -197 14 -9 42 -25 61 -36 117 -65 164 -90 240 -129
47 -25 112 -62 145 -84 33 -21 80 -50 105 -64 66 -37 84 -49 92 -60 4 -5 8
-493 8 -1082 l0 -1073 169 0 c133 0 171 3 180 14 9 11 11 249 9 961 l-3 946
21 5 c19 5 80 -18 94 -35 3 -3 34 -21 70 -40 77 -40 168 -90 193 -105 15 -9
24 -5 53 26 19 21 34 47 34 57 0 11 11 31 25 45 14 14 25 33 25 44 0 10 11 28
24 39 13 11 26 37 30 57 4 20 15 40 26 46 10 5 21 23 25 40 4 16 16 37 28 45
16 11 21 25 21 62 l1 47 -60 34 c-33 19 -103 57 -155 84 -176 93 -204 109
-270 152 -77 50 -229 136 -355 200 -27 14 -72 39 -100 56 -27 16 -57 33 -65
37 -8 4 -44 26 -80 48 -36 23 -101 61 -145 85 -282 151 -311 167 -390 220 -38
26 -90 57 -115 69 -136 68 -326 171 -395 216 -101 64 -151 94 -215 127 -168
88 -269 144 -310 173 -52 36 -137 84 -345 195 -146 78 -190 102 -205 114 -29
24 -155 97 -309 178 -52 28 -102 55 -112 61 -13 8 -21 8 -32 -2 -10 -8 -17 -9
-22 -1 -7 11 -21 12 -45 3z"/>
<path d="M5315 4969 c-3 -8 -4 -210 -3 -449 l3 -435 595 -2 c328 -2 601 1 609
6 11 7 14 87 16 440 2 289 -1 433 -8 438 -5 3 -279 8 -608 11 -501 4 -600 2
-604 -9z m1043 -419 c1 -124 0 -235 -3 -246 -2 -12 -12 -25 -22 -28 -9 -4
-197 -7 -417 -6 -305 0 -402 3 -408 13 -4 6 -8 121 -8 255 l0 242 428 -2 427
-3 3 -225z"/>
<path d="M6719 4971 c-13 -9 -15 -62 -14 -440 0 -281 4 -434 11 -441 7 -7 207
-9 605 -8 l594 3 3 434 c1 239 -2 439 -7 444 -12 12 -1172 20 -1192 8z"/>
<path d="M8130 4970 l-25 -6 0 -439 0 -440 615 0 615 0 3 425 c1 234 0 434 -2
445 -5 21 -10 21 -593 21 -323 0 -599 -2 -613 -6z"/>
<path d="M10804 4431 c-20 -9 -20 -10 -23 -982 l-2 -974 -1787 -5 -1787 -5 0
-485 0 -485 197 -1 c174 -1 202 -3 233 -20 20 -11 35 -26 35 -37 0 -25 19 -59
42 -75 10 -7 18 -22 18 -33 0 -10 5 -19 11 -19 6 0 30 -20 54 -44 80 -80 148
-116 297 -161 64 -19 209 -17 291 4 102 27 253 115 312 181 6 7 22 24 38 38
15 15 27 34 27 44 0 9 9 23 20 31 10 7 24 25 29 40 6 15 23 32 38 38 31 13
2763 17 2801 5 12 -4 22 -12 22 -18 0 -5 11 -23 25 -40 14 -16 25 -36 25 -43
0 -8 8 -19 19 -24 10 -6 24 -23 30 -38 27 -61 213 -181 331 -213 76 -21 240
-24 284 -6 21 9 49 16 61 16 60 0 271 137 303 196 7 13 17 24 23 24 5 0 17 16
25 37 9 20 29 53 46 74 l30 37 217 4 c119 2 222 7 229 11 9 6 12 114 12 482
l0 475 -22 5 c-13 3 -59 6 -103 7 l-80 3 3 390 c1 237 -1 403 -7 424 -6 18
-20 43 -31 55 -34 34 -90 107 -90 117 0 5 -7 9 -15 9 -9 0 -18 8 -22 18 -3 9
-17 28 -30 42 -37 39 -83 97 -83 105 0 4 -11 16 -25 27 -14 11 -25 25 -25 32
0 7 -11 18 -25 24 -14 6 -25 17 -25 23 0 6 -25 39 -55 74 -30 34 -55 67 -55
72 0 5 -11 15 -25 21 -14 6 -25 17 -25 23 0 11 -31 52 -85 112 -14 15 -25 32
-25 37 0 5 -9 12 -20 15 -11 3 -20 12 -20 19 0 7 -12 27 -27 43 -16 17 -41 47
-58 67 -16 20 -42 49 -57 66 -16 16 -28 34 -28 39 0 5 -8 12 -18 15 -10 4 -23
21 -30 39 -8 23 -22 36 -44 45 -39 13 -1340 16 -1374 3z m1268 -307 c7 -8 24
-28 38 -44 14 -17 36 -43 50 -60 14 -17 34 -39 44 -50 13 -13 17 -23 10 -30
-6 -6 -180 -11 -454 -12 l-445 -3 -3 -506 -2 -507 31 -11 c22 -8 256 -11 761
-11 417 0 737 -4 746 -9 15 -8 17 -31 17 -208 l0 -198 -895 0 -895 0 -3 820
c-1 451 0 826 3 833 3 9 112 12 494 12 431 0 492 -2 503 -16z m342 -416 c19
-13 35 -29 36 -35 0 -7 11 -20 25 -29 14 -9 25 -22 25 -30 0 -13 29 -49 85
-104 14 -14 25 -31 25 -38 0 -7 11 -17 25 -22 14 -5 25 -16 25 -24 0 -15 28
-50 85 -106 14 -14 25 -31 25 -38 0 -6 9 -16 21 -22 11 -7 25 -25 31 -41 5
-16 19 -34 29 -40 22 -11 26 -58 7 -77 -9 -9 -172 -12 -674 -12 -364 0 -669 3
-678 6 -14 5 -16 42 -16 308 0 222 3 305 12 314 9 9 121 12 444 12 432 0 433
0 468 -22z m-4706 -1534 c29 -8 28 -35 -2 -61 -13 -12 -27 -35 -31 -52 -4 -17
-16 -37 -27 -45 -15 -11 -22 -29 -26 -68 -2 -29 -11 -61 -20 -71 -8 -9 -18
-34 -21 -55 -6 -35 -8 -37 -46 -40 -51 -4 -86 18 -66 42 11 13 11 24 0 64 -8
27 -14 94 -14 161 0 114 0 115 25 122 31 9 197 11 228 3z m4060 -21 c2 -16 -4
-26 -22 -34 -15 -7 -28 -23 -31 -40 -4 -16 -15 -34 -25 -39 -13 -7 -21 -26
-26 -60 -3 -27 -12 -51 -20 -54 -16 -6 -36 -78 -28 -100 3 -9 1 -23 -6 -31
-11 -13 -180 -15 -1365 -15 -1541 0 -1380 -11 -1387 96 -3 43 -11 69 -26 89
-12 15 -22 40 -22 55 0 15 -10 36 -25 50 -14 13 -25 29 -25 37 0 7 -9 21 -20
30 -26 22 -25 31 3 36 12 2 697 4 1522 3 l1500 -1 3 -22z m1240 21 l22 -6 -2
-192 -3 -191 -48 -3 c-64 -4 -77 8 -77 71 0 37 -5 56 -20 72 -12 12 -23 40
-27 61 -3 22 -16 49 -29 62 -13 13 -24 31 -24 41 0 10 -11 23 -25 29 -23 11
-33 40 -18 55 8 9 220 9 251 1z m-4655 -202 c44 -23 107 -85 107 -105 0 -8 11
-29 25 -45 32 -38 35 -111 5 -149 -11 -14 -22 -40 -26 -59 -4 -20 -13 -36 -25
-39 -10 -3 -21 -14 -24 -25 -12 -36 -77 -59 -174 -61 -84 -1 -93 1 -151 32
-38 21 -63 42 -66 56 -3 11 -17 31 -30 44 -22 21 -24 30 -24 119 0 90 2 98 25
120 14 13 25 29 25 36 0 14 35 41 95 73 53 28 188 30 238 3z m4012 5 c106 -63
136 -100 147 -178 12 -92 -2 -168 -42 -217 -18 -23 -37 -42 -41 -42 -4 0 -20
-11 -35 -25 -25 -23 -34 -25 -134 -25 -118 0 -124 3 -210 89 -40 39 -54 107
-44 211 8 83 40 123 148 187 12 8 56 13 106 13 50 0 93 -5 105 -13z"/>
<path d="M5321 3932 c-8 -3 -11 -136 -11 -443 l0 -439 609 0 c592 0 609 1 614
19 6 24 -3 854 -10 861 -5 6 -1185 8 -1202 2z m1034 -442 l0 -255 -425 0 -425
0 -3 245 c-1 134 0 250 3 257 3 11 91 13 427 11 l423 -3 0 -255z"/>
<path d="M6725 3933 c-20 -4 -20 -11 -18 -391 2 -213 3 -411 3 -439 l0 -53
605 0 605 0 0 439 c0 397 -2 439 -16 445 -17 7 -1144 6 -1179 -1z"/>
<path d="M8133 3932 l-33 -3 0 -440 0 -439 620 0 620 0 0 439 0 439 -31 7
c-29 7 -1108 4 -1176 -3z"/>
<path d="M5317 2913 c-4 -3 -7 -206 -7 -450 l0 -443 609 0 c547 0 609 2 615
16 3 9 3 21 -1 27 -4 7 -7 201 -8 432 l0 420 -601 3 c-330 1 -604 -1 -607 -5z
m1041 -440 c2 -223 1 -243 -15 -251 -29 -15 -812 -16 -829 -1 -11 9 -14 56
-14 249 0 130 3 240 7 243 3 4 196 6 427 5 l421 -3 3 -242z"/>
</g>
</svg>
