<?xml version="1.0" standalone="no"?>
<!DOCTYPE svg PUBLIC "-//W3C//DTD SVG 20010904//EN"
 "http://www.w3.org/TR/2001/REC-SVG-20010904/DTD/svg10.dtd">
<svg version="1.0" xmlns="http://www.w3.org/2000/svg"
 width="459.000000pt" height="422.000000pt" viewBox="0 0 459.000000 422.000000"
 preserveAspectRatio="xMidYMid meet">

<g transform="translate(0.000000,422.000000) scale(0.100000,-0.100000)"
fill="#000000" stroke="none">
<path d="M2647 3771 c-631 -98 -1153 -183 -1159 -189 -8 -8 -7 -26 3 -64 10
-42 14 -293 18 -1228 l6 -1175 1198 -3 1197 -2 0 1185 0 1185 -1087 1 -1088 1
1070 179 c981 165 1071 181 1087 202 39 50 13 88 -59 86 -21 0 -555 -81 -1186
-178z m564 -823 c51 -15 114 -69 142 -122 31 -58 31 -183 0 -242 -75 -142
-237 -175 -349 -72 -109 100 -111 272 -5 378 65 64 131 83 212 58z m-734 -33
c78 -36 133 -130 133 -226 0 -63 -31 -138 -74 -183 -103 -105 -257 -81 -330
53 -71 131 -25 300 97 356 28 14 68 25 87 25 19 0 59 -11 87 -25z"/>
<path d="M3175 2887 c-34 -34 -55 -89 -55 -142 0 -80 59 -175 110 -175 91 0
151 156 101 266 -22 48 -64 84 -98 84 -15 0 -39 -14 -58 -33z"/>
<path d="M2410 2877 c-51 -25 -81 -129 -60 -206 32 -120 142 -135 191 -27 45
100 -6 246 -86 246 -11 0 -31 -6 -45 -13z"/>
<path d="M597 1232 c-358 -359 -428 -433 -425 -453 2 -16 11 -25 27 -27 20 -3
95 68 453 428 445 448 464 470 398 478 -21 2 -93 -65 -453 -426z"/>
<path d="M838 643 c-262 -262 -378 -385 -378 -399 0 -19 17 -34 39 -34 4 0
180 171 390 380 303 302 382 385 379 403 -2 15 -11 23 -28 25 -21 2 -85 -58
-402 -375z"/>
<path d="M1532 517 c-286 -286 -343 -348 -340 -368 2 -16 11 -25 26 -27 20 -3
85 58 369 343 357 360 377 386 313 393 -21 2 -80 -53 -368 -341z"/>
</g>
</svg>
